<svg width="48" height="48" xmlns="http://www.w3.org/2000/svg">

 <title/>
 <g>
  <title>background</title>
  <rect fill="none" id="canvas_background" height="402" width="582" y="-1" x="-1"/>
 </g>
 <g>
  <title>Layer 1</title>
  <circle fill="#a4b0c0" id="svg_1" r="23" cy="24" cx="24" class="cls-1"/>
  <circle fill="#768ba0" id="svg_2" r="5" cy="24" cx="24" class="cls-2"/>
  <circle fill="#f1f2f2" id="svg_3" r="4" cy="18" cx="37" class="cls-3"/>
  <circle fill="#f1f2f2" id="svg_4" r="4" cy="30" cx="37" class="cls-3"/>
  <circle fill="#f1f2f2" id="svg_5" r="4" cy="10" cx="24" class="cls-3"/>
  <circle fill="#f1f2f2" id="svg_6" r="4" cy="38" cx="24" class="cls-3"/>
  <circle fill="#f1f2f2" id="svg_7" r="4" cy="30" cx="11" class="cls-3"/>
  <circle fill="#f1f2f2" id="svg_8" r="4" cy="18" cx="11" class="cls-3"/>
  <path fill="#474c54" id="svg_9" d="m47,46l-23,0a21.995,21.995 0 1 1 12.435,-3.849a1,1 0 0 0 1.132,1.649a24,24 0 1 0 -13.567,4.2l23,0a1,1 0 0 0 0,-2z" class="cls-4"/>
  <path fill="#474c54" id="svg_10" d="m24,15a5,5 0 1 0 -5,-5a5.006,5.006 0 0 0 5,5zm0,-8a3,3 0 1 1 -3,3a3,3 0 0 1 3,-3z" class="cls-4"/>
  <path fill="#474c54" id="svg_11" d="m19,38a5,5 0 1 0 5,-5a5.006,5.006 0 0 0 -5,5zm8,0a3,3 0 1 1 -3,-3a3,3 0 0 1 3,3z" class="cls-4"/>
  <path fill="#474c54" id="svg_12" d="m37,35a5,5 0 1 0 -5,-5a5.006,5.006 0 0 0 5,5zm0,-8a3,3 0 1 1 -3,3a3,3 0 0 1 3,-3z" class="cls-4"/>
  <path fill="#474c54" id="svg_13" d="m11,25a5,5 0 1 0 5,5a5.006,5.006 0 0 0 -5,-5zm0,8a3,3 0 1 1 3,-3a3,3 0 0 1 -3,3z" class="cls-4"/>
  <path fill="#474c54" id="svg_14" d="m37,23a5,5 0 1 0 -5,-5a5.006,5.006 0 0 0 5,5zm0,-8a3,3 0 1 1 -3,3a3,3 0 0 1 3,-3z" class="cls-4"/>
  <path fill="#474c54" id="svg_15" d="m11,13a5,5 0 1 0 5,5a5.006,5.006 0 0 0 -5,-5zm0,8a3,3 0 1 1 3,-3a3,3 0 0 1 -3,3z" class="cls-4"/>
  <path fill="#474c54" id="svg_16" d="m30,24a6,6 0 1 0 -6,6a1,1 0 0 0 0,-2a4,4 0 1 1 4,-4a1,1 0 0 0 2,0z" class="cls-4"/>
  <path fill="#474c54" id="svg_17" d="m26.707,25.293l-2,-2a1,1 0 0 0 -1.414,1.414l2,2a1,1 0 0 0 1.414,-1.414z" class="cls-4"/>
 </g>
</svg>